<svg xmlns="http://www.w3.org/2000/svg" xml:space="preserve" viewBox="0 0 110 175"><path d="M106.03 64.673c.18-.806.337-1.62.477-2.439.475-2.634.753-5.135.753-7.434 0-.149-.017-.292-.022-.439.006-.287.022-.572.022-.859 0-28.447-23.062-51.508-51.508-51.508-28.447 0-51.508 23.061-51.508 51.508 0 .284.017.563.021.846-.005.152-.022.298-.022.452 0 34.263 51.508 103.02 51.508 103.02s40.504-55.316 49.657-90.638c.176-.634.336-1.275.486-1.92.04-.2.09-.395.13-.589z" fill="#E30613"/><mask id="a" height="155.822" width="103.016" y="1.994" x="4.243" maskUnits="userSpaceOnUse"/><g opacity=".5" mask="url(#a)"><path d="M106.03 64.673c.18-.806.337-1.62.477-2.439.475-2.634.753-5.135.753-7.434 0-.149-.017-.292-.022-.439.006-.287.022-.572.022-.859 0-28.447-23.062-51.508-51.508-51.508-28.447 0-51.508 23.061-51.508 51.508 0 .284.017.563.021.846-.005.152-.022.298-.022.452 0 34.263 51.508 103.02 51.508 103.02s40.504-55.316 49.657-90.638c.176-.634.336-1.275.486-1.92.04-.2.09-.395.13-.589z"/></g><path d="m48.087 52.676-18.09-1.974c2.758-15.41 11.713-23.118 26.862-23.118 7.625 0 13.639 2.013 18.042 6.039 4.402 4.025 6.604 9.014 6.604 14.958 0 2.632-.438 5.027-1.306 7.197-.869 2.17-1.989 3.952-3.354 5.349-1.365 1.396-3.574 3.213-6.627 5.447-2.334 1.708-3.82 2.952-4.463 3.72-.639.772-1.076 1.899-1.307 3.38h-16.36c-.001-3.98.353-6.845 1.06-8.604.706-1.757 2.16-3.623 4.36-5.596 3.319-2.991 5.39-5.215 6.209-6.677.824-1.464 1.233-3.166 1.233-5.102 0-2.038-.54-3.607-1.625-4.708-1.087-1.103-2.431-1.654-4.041-1.654-4.766.002-7.167 3.781-7.197 11.343zm18.238 25.233v17.994H47.444V77.909h18.881z" fill="#fff"/></svg>